<svg id="Layer_1" data-name="Layer 1" xmlns="http://www.w3.org/2000/svg" viewBox="0 0 747.26 100"><defs><style>.cls-1,.cls-2{fill:#fff;}.cls-2{font-size:48.61px;font-family:BookmanOldStyle, Bookman Old Style;}.cls-3{letter-spacing:0em;}.cls-4{letter-spacing:-0.04em;}.cls-5{letter-spacing:-0.06em;}</style></defs><title>tawa_sb_logo</title><g id="fkYm7Z.tif"><path class="cls-1" d="M68.63,13.18c.52.24.37.71.37,1.11V30.38c0,9.11,0,18.22,0,27.33a23.85,23.85,0,0,1-.52,3.82,6.67,6.67,0,0,1-.5,1.22,14.45,14.45,0,0,1-2.1,3.76,23.79,23.79,0,0,1-2.62,2.87c-1.19,1.11-2.5,2.08-3.75,3.12a3.07,3.07,0,0,0-.36.45,5.25,5.25,0,0,0-.74.27,52.21,52.21,0,0,1-13,5.45,12.38,12.38,0,0,1-1.88.49,4.48,4.48,0,0,1-1.62-.2,57.25,57.25,0,0,1-12.7-5.18c-.72-.4-1.29-1-2-1.34a10.42,10.42,0,0,1-2-1.52,30.07,30.07,0,0,1-2.82-2.33,19.51,19.51,0,0,1-3.88-4.88c-.56-1.17-1.22-2.3-1.7-3.5a16.36,16.36,0,0,1-1.18-6.11q0-15.21-.06-30.44c0-3.22-.09-6.44-.14-9.66,0-.35,0-.68.41-.82H68.63ZM42.35,34.69H17.41c-.48,0-.68.1-.68.64,0,4.39-.07,8.79-.11,13.18,0,1.74,0,3.49,0,5.23A16.24,16.24,0,0,0,17.53,59a22.52,22.52,0,0,0,6.21,9.57,33.41,33.41,0,0,0,7.49,5.3,64.17,64.17,0,0,0,11.32,4.42.87.87,0,0,0,.53,0c2.18-.69,4.36-1.39,6.52-2.12a40.08,40.08,0,0,0,9.52-4.78,22,22,0,0,0,6.93-6.93A12.08,12.08,0,0,0,68,58.18c0-7.57,0-15.14,0-22.71,0-.77,0-.78-.77-.78Zm-.24-1.27H67c.3,0,.33-.15.24-.4a2.32,2.32,0,0,1-.16-.68c0-5.62,0-11.24,0-16.87,0-.53-.16-.7-.7-.7H17.67c-.85,0-.85,0-.85.85q0,8.53,0,17.09c0,.68,0,.7.73.7Z"/><path class="cls-1" d="M59.51,76.71c0,1.61-.09,3.22-.11,4.83,0,.34-.07.52-.45.63-1.81.51-3.6,1.11-5.42,1.6a45.15,45.15,0,0,1-11.22,1.4,39.3,39.3,0,0,1-8.37-.91,29.31,29.31,0,0,1-6.37-2.21,1,1,0,0,1-.59-.9c-.09-1.48-.24-3-.37-4.43a2.69,2.69,0,0,1,0-.29C37.56,81.37,48.52,80.89,59.51,76.71ZM31.83,81c-.58-1.43-2.54-3-3.67-3,.57.68.6,2.78,0,3.29.67.29,1.32.6,2,.84.84.3,1.2.16,1.71-.58a2.84,2.84,0,0,0,1.66,1.79,1.45,1.45,0,0,0,1.9-.75A2.35,2.35,0,0,0,34,80C33.09,79.6,32.39,79.91,31.83,81Zm15-.44a3.2,3.2,0,0,0-.75,0,3.13,3.13,0,0,0-1.2.31,1.17,1.17,0,0,0-.46.91c0,.28.4.56.68.76s.52.11.72.25a2.19,2.19,0,0,1,.43.59c-.23.15-.48.42-.7.41a1.76,1.76,0,0,1-.78-.44,2.49,2.49,0,0,1-.36-.43l-.16.06.08,1a5.38,5.38,0,0,0,.86,0,4.25,4.25,0,0,0,1.24-.22,1,1,0,0,0,.64-1.07c0-.49-.37-.69-.79-.8l-.59-.15c-.34-.09-.65-.33-.47-.65s.55-.25.84-.26.31.23.44.38a2.07,2.07,0,0,1,.22.35l.11,0Zm-5.19.27H40.33a4.39,4.39,0,0,1,.22.82c0,.44,0,.89,0,1.33,0,.74.57,1.19,1.43,1.25a1.28,1.28,0,0,0,1.39-1.09,6.87,6.87,0,0,0,0-1.11c0-.45-.07-.92.42-1.23H42.62c.19.27.44.46.47.69a7.78,7.78,0,0,1,0,1.6.81.81,0,0,1-.91.78c-.54,0-.73-.4-.77-.85a6.86,6.86,0,0,1,0-1.28A5.58,5.58,0,0,1,41.62,80.84ZM56.52,82a3.75,3.75,0,0,1-.28-.94,1.64,1.64,0,0,1,.26-.78c.35-.63.73-1.24,1.1-1.87,0,0,0,0-.06,0l-.9.25c.26.45.07,1-.53,1.66-.62-.55-.73-.9-.33-1.46l-1.65.48c.38.49.76.93,1.07,1.41a1.24,1.24,0,0,1-.24,1.7Zm-9.05-.63a3.76,3.76,0,0,1,.43-.59,1.69,1.69,0,0,1,.49-.21,2.54,2.54,0,0,1,.13.45,11.8,11.8,0,0,1,0,1.33c0,.43-.09.85-.15,1.32l1.45-.21.13-.13c-.69-.11-.56-.57-.56-1s0-1,0-1.56c0-.15.13-.38.25-.41a.82.82,0,0,1,.53.14c.12.07.19.22.33.39.17-.87.12-.94-.6-.85s-1.32.17-2,.27S47.22,80.58,47.47,81.36Zm-9.8,2.43c.07-.16.14-.24.14-.32a2.23,2.23,0,0,0-.09-.63.68.68,0,0,0-.46,0,.9.9,0,0,0-.11.68,1.1,1.1,0,0,0,1.25.5.92.92,0,0,0,.83-.84c.05-.38,0-.77.05-1.16s.13-.83.2-1.29L38,80.63c.19.28.4.46.42.65a16.52,16.52,0,0,1,0,2C38.39,83.63,38.19,83.88,37.67,83.79ZM51,83.25l2.41-.49c.6-.13.75-.44.51-1.15-.16.25-.25.53-.44.65a6,6,0,0,1-1,.41,6.86,6.86,0,0,1-.24-.77,2.49,2.49,0,0,1,0-.61c.06-.54-.22-1.15.3-1.68l-1.61.33C51.46,80.41,51.51,82.58,51,83.25Z"/><path class="cls-1" d="M63.63,73.05c0,.64-.07,1.22-.12,1.8-.07,1-.16,2-.22,2.93,0,.31-.11.52-.46.57-.81.11-1.62.25-2.59.4.08-.65.14-1.13.18-1.62a2.8,2.8,0,0,0-.18-1.93,1,1,0,0,1-.12-.25c-.29-.76-.16-1.09.61-1.29C61.66,73.42,62.6,73.26,63.63,73.05Z"/><path class="cls-1" d="M23.7,73.33l3.65,1,0,.19a8.45,8.45,0,0,0-1,.52c-.83.6-.52,1.45-.46,2.25.05.5.1,1,.15,1.59-.63-.11-1.18-.18-1.71-.32a.61.61,0,0,1-.36-.42C23.84,76.56,23.78,75,23.7,73.33Z"/><path class="cls-1" d="M25.93,48.1c1.1-.36,1.08-1,1-2.49l-.84.36c.06-1.12.12-2.23.19-3.33a2.56,2.56,0,0,1,0-.39c.17-.83.17-.83-.53-.75.29-.88.57-1.79.87-2.69a1.38,1.38,0,0,1,.37-.67,2,2,0,0,0,.73-1.53c0-.51.32-.64.7-.3a1.91,1.91,0,0,0,1.55.36,2.5,2.5,0,0,1,1.86.52,1.28,1.28,0,0,0,.72.17c.55,0,1.11,0,1.66,0,.33,0,.53.14.48.56a2.44,2.44,0,0,1-.61,1.78.5.5,0,0,0,.15.4,1.56,1.56,0,0,0,2.17-.34.89.89,0,0,1-.69,1,7.14,7.14,0,0,1-1.37-.1,5.08,5.08,0,0,1,.2,1.23c-.06.74-.72.09-1.1.43a7.15,7.15,0,0,1,.49.73,5.12,5.12,0,0,1,.26.75,4.06,4.06,0,0,1-.69.08c-.54,0-.54,0-.37.49s.22.87.34,1.36l-.63,0c0,.1,0,.21,0,.23.25.15.58.46.76.39A4.22,4.22,0,0,0,35.78,45c.79-1.18,1.52-2.4,2.32-3.58a3.73,3.73,0,0,1,.94-1c.64-.44.7-.48.38-1.18a4.71,4.71,0,0,0-.34-.6c.54.13,1.06.28,1.58.37a19.84,19.84,0,0,0,2.42.34c1.07,0,1.42.77,1.38,1.74q-.12,2.74-.18,5.49c-.08,3.06-.18,6.12-.2,9.17,0,3.91,0,7.82.07,11.73,0,1.15.09,2.29.13,3.44,0,.11,0,.23,0,.33.19.89.07,1.1-.78,1.28A5.47,5.47,0,0,1,40,72.08c-.82-.37-.86-1.11-.76-2s.24-2.17.35-3.25c.07-.72.11-1.44.17-2.12-.75-.38-1.46-.78-2.19-1.11a2.08,2.08,0,0,0-.83,0v.78l-1.32-.41c-.61-.19-.68-.12-.57.51a3.05,3.05,0,0,1,0,.43l-1.15-.47c-.64-.25-.81-.16-.89.52,0,.07,0,.14,0,.09-.54-.15-1.08-.27-1.6-.44a.59.59,0,0,1-.33-.38c-.08-.48-.09-1-.14-1.61a3,3,0,0,0-.61.37c-.51.55-1,1.16-1.5,1.7a1.6,1.6,0,0,0-.28,1.92,5.4,5.4,0,0,0,4,3.08c.6.1,1.18.31,1.33,1.06.07.37.1.69-.4.78-.11,0-.21.17-.29.28a5.53,5.53,0,0,0-.32.46l-.95-.81-.48,1c-.39-.21-.75-.38-1.08-.59a1.64,1.64,0,0,1-.52-.46c-.37-.59-.69-1.21-1.07-1.88l-.73.77c-.1-.52-.17-1-.28-1.4s-.28-.54-.77-.31c-.1-.4-.17-.8-.29-1.18s-.2-.86-.83-.6c-.11-.65-.22-1.26-.32-1.87a1,1,0,0,1,.43-1,2.4,2.4,0,0,0,.91-3.38c-.45-1-1-2-1.45-3a2.5,2.5,0,0,1-.16-.41c-.11-.43-.3-.63-.83-.52-1.38.28-2.94-.46-3.12-1.57a6.83,6.83,0,0,1,.07-2.74,31.73,31.73,0,0,1,1.53-4c.34-.81.21-1.22-.59-1.58l-.39-.16c.18-.89.39-.9,1.87-.13a2.31,2.31,0,0,0,.2-1.65,1.1,1.1,0,0,0-1.26-.47l-.9.26c-.4-.73,0-1.4.28-2.06-.91-.44-1.34-.31-1.9.53a1.82,1.82,0,0,1,.5-2.28,1.76,1.76,0,0,1,2.36,0c.25.2.34.09.51-.13.4-.57.71-.57,1.23,0l-.52.2a1.42,1.42,0,0,0,.46,1.56,2.91,2.91,0,0,1,.81,2.77,9.12,9.12,0,0,1-1.71,4.39,8.59,8.59,0,0,0-1.58,3.92,1.65,1.65,0,0,0,1.6,2.07,1,1,0,0,0,1-.64c.22-.51.44-1,.67-1.51.57-1.22,1.15-2.43,1.69-3.65a2.41,2.41,0,0,0,.08-.72c0-.35-.16-.49-.5-.51a4.13,4.13,0,0,1-.77-.19Zm6.23,2.68c-.48.7-.87,1.31-1.3,1.91s-.82,1-1.19,1.52-.29.77.34,1c.42.19.84.39,1.27.56,1.55.6,2,1.58,1.89,3.19,0,.76-.13,1.51-.18,2.27s.22,1,.95,1.08a3.79,3.79,0,0,0,2.44-.52c.68-.41,1.33-.86,2-1.26a1.45,1.45,0,0,1,.78-.21c.72.05.71.07.7-.64v-.16q0-3-.08-6c0-.38-.19-.59-.5-.46a1,1,0,0,1-1.47-.61s-.08-.08-.12-.12c-.38-.38-.69-.37-.9.12a7.72,7.72,0,0,0-.3,1.39L35,52.33a5.39,5.39,0,0,0-.43-.39l-.4.45c-.28-.34-.56-.69-.85-1-.12-.14-.26-.25-.38-.37l-.27.36Zm4.48-2.38c-.29,0-.54,0-.79.09s-.27.1-.29.18a.37.37,0,0,0,.15.31c.65.4,1.3.83,2,1.16a1,1,0,0,0,.76-.19,9.37,9.37,0,0,0,1-.87.54.54,0,0,0,.16-.33c0-1.63.08-3.25.11-4.88,0-.35-.19-.5-.5-.3s-.82.62-.69,1.2A11,11,0,0,0,39,46c-.35.14-.76.31-1.15.49-.09,0-.22.16-.21.21.18.65-.26.68-.69.75a4.37,4.37,0,0,0-.57.17Z"/><path class="cls-1" d="M59.44,45.78c-.75-.05-.75-.05-.81.88-.05.69.09.87,1.17,1.46a2.89,2.89,0,0,1-.86.29c-.36,0-.51.18-.47.47a6.09,6.09,0,0,0,.39,1.76c.56,1.18,1.25,2.3,1.88,3.45a1.55,1.55,0,0,1,.17.4c.11.47.33.87.86.86a1.58,1.58,0,0,0,1.51-.62,2.61,2.61,0,0,0,.14-2.15,16.07,16.07,0,0,0-2-4,7.38,7.38,0,0,1-1.38-4.24A3.55,3.55,0,0,1,61,42.05c.64-.69.57-1.1-.19-1.58.48-.48.48-.48,1,0a.63.63,0,0,0,1,.09,2,2,0,0,1,2.15-.16,1.52,1.52,0,0,1,.81,1.86,4.4,4.4,0,0,1-.29,1l-.27-.6a.72.72,0,0,0-.81-.51c-.65.07-.71.21-.5.81A5,5,0,0,1,64,44.39a1.76,1.76,0,0,0-1.57-.22c-.24,0-.46.36-.64.6a.75.75,0,0,0-.1.48c0,.32.08.64.12,1a7.44,7.44,0,0,0,.78-.31c.38-.21.75-.36,1.09,0,.18.21.24.4-.1.56-.88.43-1,.69-.68,1.63.23.67.61,1.3.84,2a17,17,0,0,1,.92,3.06c.22,1.32-.18,2.64-1.23,3a11.62,11.62,0,0,1-2.06.29c-.18,0-.47.14-.5.25A10.16,10.16,0,0,1,59.31,60a2.23,2.23,0,0,0,.35,3.15,2.29,2.29,0,0,1,.73,2.49,4.59,4.59,0,0,0-.12,1c-1.26.07-.75,1.23-1.2,1.82l-.46-.21-.53,1.92-.72-.65c-.71,1.13-1,2.59-2.61,2.93a1.5,1.5,0,0,1-.22-.33c-.3-.6-.49-.62-.93-.1l-.19.23a9.92,9.92,0,0,1-1-.73A1,1,0,0,1,52.72,70a4.52,4.52,0,0,1,1.43-.55,4.59,4.59,0,0,0,2.92-2.2,7.2,7.2,0,0,0,.48-.81,1.59,1.59,0,0,0-.42-2c-.48-.46-.87-1-1.32-1.5a3.81,3.81,0,0,0-.49-.39l-.15.11a3.9,3.9,0,0,0,.08.91c.17.51,0,.81-.53.93s-1.1.3-1.73.48c.09.09,0,.06,0,0,0-.84-.16-.88-1-.58L51,64.85l0-1.07-1.87.55-.13-.8a4.26,4.26,0,0,0-.89.19,5.94,5.94,0,0,0-.65.5,1.08,1.08,0,0,1-.57.23c-.46,0-.76.21-.73.68.08,1.18.23,2.36.29,3.54a4.89,4.89,0,0,1-.11,1.67c-.18.66-.76.88-1.52.91,0-1.3-.06-2.57-.08-3.84q-.11-6.45-.19-12.9a19,19,0,0,1,.1-2.38,1.8,1.8,0,0,1,.38-.69,2.61,2.61,0,0,1-.29-.75c0-1.52,0-3,0-4.56,0-1.85.13-3.7.17-5.55a1.8,1.8,0,0,0-1.6-1.82c-.66-.08-1.33-.15-2-.2-1.06-.09-1.06-.08-1-1a17.93,17.93,0,0,0,2.88.84,19.46,19.46,0,0,0,3-.07,3.7,3.7,0,0,0-.24.54,1.26,1.26,0,0,0,.44,1.57,7.25,7.25,0,0,1,1.42,2,12.55,12.55,0,0,0,2.71,3.35,4.38,4.38,0,0,0,1.19.68c.47.19.72,0,.79-.61-.6,0-.61-.29-.42-.73s.27-.72.44-1.19L51,44.06l1-1.74-.37,0c-.79,0-.89-.11-.68-.9a4.12,4.12,0,0,0,.07-.62l-1,.26a1,1,0,0,1-1.22-1.33l.3.3a1.68,1.68,0,0,0,2.17.09.36.36,0,0,0,0-.33c-.74-.59-.53-1.44-.68-2.25a5.47,5.47,0,0,1,2.16-.13,1.08,1.08,0,0,0,.71-.16,2.88,2.88,0,0,1,2.28-.61,1.24,1.24,0,0,0,.9-.25c.65-.53.86-.45,1,.38a2.38,2.38,0,0,0,.52,1.1,9.93,9.93,0,0,1,.89,1.89c.22.54.42,1.08.64,1.64H59.1Zm-6.52,5.66-.27-.5-1.2,1.45c-.21-.19-.41-.45-.5-.42a.87.87,0,0,0-.49.45A4.45,4.45,0,0,1,49,54.08a4,4,0,0,0,0-1,4,4,0,0,0-.5-.8c-.23.15-.56.25-.67.47a1,1,0,0,1-1.44.56c-.27-.11-.6,0-.59.41,0,2.17,0,4.34,0,6.51,0,.37.16.51.47.34a1.11,1.11,0,0,1,1.24.16A15.25,15.25,0,0,0,49.63,62a6.06,6.06,0,0,0,2.14.4c.93,0,1.14-.46,1-1.53a18.13,18.13,0,0,1-.16-2.65A2.27,2.27,0,0,1,53.93,56c.59-.27,1.19-.5,1.76-.8s.72-.57.24-1.19c0-.06-.1-.11-.14-.17-.76-1-1.52-2-2.35-3.07Zm-6.53-5.26c.79-1.06.82-1.63.18-2.38a1,1,0,0,0-.58-.22c-.05,0-.19.24-.19.37,0,1.58,0,3.15,0,4.73a.65.65,0,0,0,.16.43,11.16,11.16,0,0,0,1.13.93c.19.14.52.34.65.26A18.13,18.13,0,0,0,50,49c.26-.19.12-.43-.23-.44l-.72,0,.12-.81-1.45-.22L48,46.5Z"/><path class="cls-1" d="M42.92,35.54c.9.18,2,.38,3.17.63a1.38,1.38,0,0,1,.74.46,1.17,1.17,0,0,1,.13.75c0,.08-.31.15-.49.19a1.52,1.52,0,0,1-.6.07c-.29,0-.66.1-.8-.37s-1.25-.46-1.58,0c-.51.7-1.06.4-1.54.23a9.44,9.44,0,0,1-1.55-.92c-.15-.09-.34-.25-.45-.21s-.21.28-.25.44c-.07.36-.06.8-.51.86a2.56,2.56,0,0,1-.86-.23c.07-.22.08-.51.22-.66a3.87,3.87,0,0,1,2.4-1Z"/><path class="cls-1" d="M26.89,32c0-.49,0-.92,0-1.34s-.32-.58-.71-.55-.9,0-1,.57a4.12,4.12,0,0,0,0,.61c0,.78,0,.8-.77.7l-2.52-.35a.59.59,0,0,1-.57-.68c0-.86,0-1.72.05-2.56A2.19,2.19,0,0,1,22,27.31,1.83,1.83,0,0,0,22.44,26c0-1.2,0-2.41,0-3.62a1,1,0,0,0-.31-.77,2.29,2.29,0,0,1-1-2.43,2.62,2.62,0,0,0,0-.28c0-1.2,0-1.2,1.18-1.51.81-.2,1-.09,1.26.7.48,0,.84,0,.8-.66,0-.1.14-.29.23-.3.61-.07,1.21-.13,1.81-.15.33,0,.58.13.51.55s.05.52.41.5.66.28.76-.33c0-.16.51-.39.75-.35a4.75,4.75,0,0,1,1.33.49.63.63,0,0,1,.18.47,10.47,10.47,0,0,1,0,1.94,4.64,4.64,0,0,1-.6,1.14,3,3,0,0,0-.38,1c-.05,1.06,0,2.12,0,3.17a1.78,1.78,0,0,0,.7,1.7,1.55,1.55,0,0,1,.66,1.58,6.84,6.84,0,0,0,0,1.5,1,1,0,0,1-.7,1.13A6,6,0,0,1,26.89,32Z"/><path class="cls-1" d="M59.88,31.57c-.06-.63-.14-1.07-.14-1.51,0-.62-.48-.6-.84-.63a.88.88,0,0,0-.95.75,1.34,1.34,0,0,0,0,.28c.16,1.34.16,1.09-1,1.14a11.33,11.33,0,0,1-2.63-.36c-.16,0-.34-.39-.34-.6a24.67,24.67,0,0,1,.17-3.1,2.4,2.4,0,0,1,.72-1.07,2,2,0,0,0,.6-1.6c-.06-1,0-1.93,0-2.9a2,2,0,0,0-.38-.78c-.06-.1-.21-.15-.3-.23-.39-.33-1-.61-1.11-1a5,5,0,0,1,0-2.14c.13-.68.88-.74,1.42-.91a.8.8,0,0,1,1,.53c0,.08.24.18.3.15s.4-.25.4-.38c0-.52.33-.61.72-.64s.85,0,1.27,0,.91,0,.82.72c0,.13.45.33.7.51.48-1,.8-1.07,1.73-.74.76.29,1.1.71.94,1.52A1.3,1.3,0,0,0,63,19a2,2,0,0,1-.82,2,1,1,0,0,0-.3.71c0,1.24,0,2.48,0,3.73a1.23,1.23,0,0,0,.36.79A2,2,0,0,1,63,28.05a21.86,21.86,0,0,0,0,2.56c0,.3-.07.46-.36.51Z"/><path class="cls-1" d="M47,26.83c-.45-.36-.75-.64-1.07-.87a1.06,1.06,0,0,0-1.6.71c0,.12.16.24.18.37a4.91,4.91,0,0,1,.08.86c0,.21-.17.55-.09.6a1.23,1.23,0,0,0,.81.32,6,6,0,0,0,1.27-.47,2.73,2.73,0,0,1-.86,2.23c-.48.54-1.09.42-1.7.22a.56.56,0,0,0-.48.18c-.86,1.15-.9,1.16-1.74,0-.22-.3-.39-.17-.61-.09a1.72,1.72,0,0,1-1.88-.23,1.87,1.87,0,0,1-.53-2.07,3.38,3.38,0,0,0,1,.31,1.58,1.58,0,0,0,1-.34c.32-.25,0-.46-.19-.68a.55.55,0,0,1,.12-.83c.27-.23.23-.42,0-.65s-.7-.79-1.26-.67a1.15,1.15,0,0,0-.87,1.1.51.51,0,0,1-.09.13,3.26,3.26,0,0,1-1.22-3.32,2.21,2.21,0,0,1,2.71-1l.72.33-.17-.92a4.44,4.44,0,0,1,.42-2.36,15.6,15.6,0,0,1,.8-1.58c.25-.51.49-1,.78-1.63.67,1.88,2.06,3.39,2,5.45,0,.37-.1.75-.14,1.08A13.37,13.37,0,0,1,46,22.62,1.82,1.82,0,0,1,47.86,25,10.65,10.65,0,0,1,47,26.83Z"/><path class="cls-1" d="M34.54,81.88a1.67,1.67,0,0,1,0,.63c-.11.25-.3.57-.52.63a.91.91,0,0,1-.74-.3,2.48,2.48,0,0,1-.19-2.42.5.5,0,0,1,.79-.2A1.55,1.55,0,0,1,34.54,81.88Z"/><path class="cls-1" d="M29.45,78.85a2.09,2.09,0,0,1,1.29,2.68c-.07.18-.41.44-.54.4s-.69-.34-.72-.56C29.4,80.56,29.45,79.74,29.45,78.85Z"/></g><text class="cls-2" transform="translate(90.63 64.82)"><tspan class="cls-3">T</tspan><tspan class="cls-4" x="30.19" y="0">A</tspan><tspan class="cls-5" x="61.3" y="0">W</tspan><tspan x="104.85" y="0">A COLLEGE</tspan></text></svg>